<svg width="108" height="108" xmlns="http://www.w3.org/2000/svg" enable-background="new 0 0 472 108">
 <g>
  <title>Layer 1</title>
  <path fill="#9FA628" d="m38,47c-2.8,0 -5,-2.2 -5,-5s2.2,-5 5,-5l25,0l0,-17c0,-7 -3.9,-11 -11,-11l-12,0c-7.1,0 -11,4 -11,11l0,62c0,1.7 -1.3,3 -3,3l-7,0l0,18l6,-6l3,0c5.4,0 10,-3.3 12,-8l20,0c1.7,0 3,1.3 3,3l0,7l18,0l-6,-6l0,-3c0,-6.8 -5.3,-12.4 -12,-12.9l0,-2.1l24,0l-5,-4l6,-2l-6,-2l5,-4l-24,0l0,-4l24,0l-5,-4l6,-2l-6,-2l5,-4l-49,0z" id="svg_1"/>
  <g fill="#fff" id="svg_2">
   <circle cx="40" cy="29" r="4" id="svg_3"/>
   <circle cx="52" cy="29" r="4" id="svg_4"/>
  </g>
  <g fill="#BF6C35" id="svg_5">
   <circle cx="40" cy="29" r="2" id="svg_6"/>
   <circle cx="52" cy="29" r="2" id="svg_7"/>
  </g>
  <path d="m29,78l0,-10l-9,5l9,5zm0,-10l0,-10l-9,5l9,5zm0,-10l0,-10l-9,5l9,5zm-9,-15l9,5l0,-10l-9,5z" fill="#E2CBB5" id="svg_8"/>
  <path d="m63,46l-2,-4l-2,4l-2,0l-2,-4l-2,4l-2,0l-2,-4l-2,4l-2,0l-2,-4l-2,4l-2,0l-2,-4l-1.5,3.1c-0.9,-0.8 -1.5,-1.9 -1.5,-3.1c0,-1.9 1.3,-3.5 3.1,-3.9l1.9,3.9l2,-4l2,0l2,4l2,-4l2,0l2,4l2,-4l2,0l2,4l2,-4l5,0l0,-18c0,-3.4 -0.9,-6.1 -2.5,-8.1l2.6,-2.6c0.9,0.4 1.8,0.7 2.9,0.7c0.6,0 1,-0.4 1,-1s-0.4,-1 -1,-1c-1.9,0 -3,-1.1 -3,-3c0,-0.6 -0.4,-1 -1,-1s-1,0.4 -1,1c0,1.1 0.3,2 0.8,2.8l-2.6,2.6c-2.1,-1.5 -4.8,-2.4 -8.2,-2.4l-12,0c-3.4,0 -6.1,0.9 -8.1,2.5l-2.6,-2.6c0.4,-0.9 0.7,-1.8 0.7,-2.9c0,-0.6 -0.4,-1 -1,-1s-1,0.4 -1,1c0,1.9 -1.1,3 -3,3c-0.6,0 -1,0.4 -1,1s0.4,1 1,1c1.1,0 2,-0.3 2.8,-0.8l2.6,2.6c-1.6,2 -2.5,4.7 -2.5,8.1l0,17.4l-10,5.7l9,5l-9,5l9,5l-9,5l9,5l-9,5l10.1,5.6l0,3.4c0,1.1 -0.9,2 -2,2l-8,0l0,21.4l7.4,-7.4l2.6,0c5.4,0 10.3,-3.1 12.6,-8l19.4,0c1.1,0 2,0.9 2,2l0,8l21.4,0l-7.4,-7.4l0,-2.6c0,-7 -5.2,-12.9 -12,-13.8l0,-0.2l25.9,0l-5.8,-4.6l7.1,-2.4l-7.1,-2.4l5.8,-4.6l-25.9,0l0,-2l25.9,0l-5.8,-4.6l7.1,-2.4l-7.1,-2.4l5.8,-4.6l-26.9,0zm1,2l20.1,0l-4.2,3.4l4.9,1.6l-4.9,1.6l4.2,3.4l-20.1,0l0,-10zm-36,-8.3l0,6.6l-5.9,-3.3l5.9,-3.3zm0,10l0,6.6l-5.9,-3.3l5.9,-3.3zm0,10l0,6.6l-5.9,-3.3l5.9,-3.3zm-5.9,13.3l5.9,-3.3l0,6.6l-5.9,-3.3zm7.9,-53c0,-6.4 3.6,-10 10,-10l12,0c6.4,0 10,3.6 10,10l0,16l-24,0c-3.3,0 -6,2.7 -6,6s2.7,6 6,6l24,0l0,16l22.1,0l-4.2,3.4l4.9,1.6l-4.9,1.6l4.2,3.4l-22.1,0l0,4l0.9,0.1c6.2,0.4 11.1,5.7 11.1,11.9l0,3.4l4.6,4.6l-14.6,0l0,-6c0,-2.2 -1.8,-4 -4,-4l-20.7,0l-0.3,0.6c-1.8,4.5 -6.1,7.4 -11,7.4l-3.4,0l-4.6,4.6l0,-14.6l6,0c2.2,0 4,-1.8 4,-4l0,-62zm10,13.9c2.7,0 4.9,-2.2 4.9,-4.9s-2.2,-4.9 -4.9,-4.9s-4.9,2.2 -4.9,4.9s2.2,4.9 4.9,4.9zm0,-8c1.7,0 3.1,1.4 3.1,3.1s-1.4,3.1 -3.1,3.1s-3.1,-1.4 -3.1,-3.1s1.4,-3.1 3.1,-3.1zm12,8c2.7,0 4.9,-2.2 4.9,-4.9s-2.2,-4.9 -4.9,-4.9s-4.9,2.2 -4.9,4.9s2.2,4.9 4.9,4.9zm0,-8c1.7,0 3.1,1.4 3.1,3.1s-1.4,3.1 -3.1,3.1s-3.1,-1.4 -3.1,-3.1s1.4,-3.1 3.1,-3.1z" fill="#663F4C" id="svg_9"/>
 </g>

</svg>