<svg width="108" height="108" xmlns="http://www.w3.org/2000/svg" enable-background="new 0 0 472 108">

 <g>
  <title>Layer 1</title>
  <path id="svg_1" d="m85,99l-6,-6l0,-3c0,-6.8 -5.3,-12.4 -12,-12.9l0,-4.1l3,0c7.2,0 13,-5.8 13,-13l0,-13c0,-1.1 -0.9,-2 -2,-2s-2,0.9 -2,2c0,-1.1 -0.9,-2 -2,-2s-2,0.9 -2,2c0,-1.1 -0.9,-2 -2,-2s-2,0.9 -2,2l0,11c0,1.7 -1.3,3 -3,3l-1,0l0,-14l-25,0c-2.8,0 -5,-2.2 -5,-5s2.2,-5 5,-5l25,0l0,-2c2.2,0 4,-1.8 4,-4s-1.8,-4 -4,-4l0,-7c0,-7 -3.9,-11 -11,-11l-12,0c-7.1,0 -11,4 -11,11l0,7c-2.2,0 -4,1.8 -4,4s1.8,4 4,4l0,26l-1,0c-1.7,0 -3,-1.3 -3,-3l0,-11c0,-1.1 -0.9,-2 -2,-2s-2,0.9 -2,2c0,-1.1 -0.9,-2 -2,-2s-2,0.9 -2,2c0,-1.1 -0.9,-2 -2,-2s-2,0.9 -2,2l0,13c0,7.2 5.8,13 13,13l3,0l0,9c0,1.7 -1.3,3 -3,3l-7,0l0,18l6,-6l3,0c5.4,0 10,-3.3 12,-8l20,0c1.7,0 3,1.3 3,3l0,7l18,0z" fill="#E2CBB5"/>
  <path id="svg_2" d="m56,9l-12,0c-7.1,0 -11,4 -11,11l0,1l2,-2l3,3l3,-3l3,3l3,-3l3,3l3,-3l3,3l3,-3l3,3l3,-3l2,2l0,-1c0,-7 -3.9,-11 -11,-11z" fill="#BF6C35"/>
  <circle id="svg_3" r="4" cy="29" cx="44" fill="#fff"/>
  <circle id="svg_4" r="4" cy="29" cx="56" fill="#fff"/>
  <circle id="svg_5" r="2" cy="29" cx="44" fill="#9FA628"/>
  <circle id="svg_6" r="2" cy="29" cx="56" fill="#9FA628"/>
  <path id="svg_7" fill="#663F4C" d="m44,33.9c-2.7,0 -4.9,-2.2 -4.9,-4.9s2.2,-4.9 4.9,-4.9s4.9,2.2 4.9,4.9s-2.2,4.9 -4.9,4.9zm0,-8c-1.7,0 -3.1,1.4 -3.1,3.1s1.4,3.1 3.1,3.1s3.1,-1.4 3.1,-3.1s-1.4,-3.1 -3.1,-3.1zm12,8c-2.7,0 -4.9,-2.2 -4.9,-4.9s2.2,-4.9 4.9,-4.9s4.9,2.2 4.9,4.9s-2.2,4.9 -4.9,4.9zm0,-8c-1.7,0 -3.1,1.4 -3.1,3.1s1.4,3.1 3.1,3.1s3.1,-1.4 3.1,-3.1s-1.4,-3.1 -3.1,-3.1zm31.4,74.1l-7.4,-7.4l0,-2.6c0,-7 -5.2,-12.9 -12,-13.8l0,-2.2l2,0c7.7,0 14,-6.3 14,-14l0,-13c0,-1.7 -1.3,-3 -3,-3c-0.8,0 -1.5,0.3 -2,0.8c-0.5,-0.5 -1.2,-0.8 -2,-0.8s-1.5,0.3 -2,0.8c-0.5,-0.5 -1.2,-0.8 -2,-0.8c-1.7,0 -3,1.3 -3,3l0,11c0,1.1 -0.9,2 -2,2l0,-14l-5,0l0,-0.5c0,-0.8 -0.7,-1.5 -1.5,-1.5s-1.5,0.7 -1.5,1.5l0,0.5l-3,0l0,-0.5c0,-0.8 -0.7,-1.5 -1.5,-1.5s-1.5,0.7 -1.5,1.5l0,0.5l-3,0l0,-0.5c0,-0.8 -0.7,-1.5 -1.5,-1.5s-1.5,0.7 -1.5,1.5l0,0.5l-3,0l0,-0.5c0,-0.8 -0.7,-1.5 -1.5,-1.5s-1.5,0.7 -1.5,1.5l0,0.5c-2.2,0 -4,-1.8 -4,-4s1.8,-4 4,-4l3,0l0,0.5c0,0.8 0.7,1.5 1.5,1.5s1.5,-0.7 1.5,-1.5l0,-0.5l3,0l0,0.5c0,0.8 0.7,1.5 1.5,1.5s1.5,-0.7 1.5,-1.5l0,-0.5l3,0l0,0.5c0,0.8 0.7,1.5 1.5,1.5s1.5,-0.7 1.5,-1.5l0,-0.5l3,0l0,0.5c0,0.8 0.7,1.5 1.5,1.5s1.5,-0.7 1.5,-1.5l0,-0.5l2,0l0,-2.1c2.3,-0.5 4,-2.5 4,-4.9s-1.7,-4.4 -4,-4.9l0,-6.1c0,-7.6 -4.4,-12 -12,-12l-12,0c-7.6,0 -12,4.4 -12,12l0,6.1c-2.3,0.5 -4,2.5 -4,4.9s1.7,4.4 4,4.9l0,24.1c-1.1,0 -2,-0.9 -2,-2l0,-11c0,-1.7 -1.3,-3 -3,-3c-0.8,0 -1.5,0.3 -2,0.8c-0.5,-0.5 -1.2,-0.8 -2,-0.8s-1.5,0.3 -2,0.8c-0.5,-0.5 -1.2,-0.8 -2,-0.8c-1.7,0 -3,1.3 -3,3l0,13c0,7.7 6.3,14 14,14l2,0l0,8c0,1.1 -0.9,2 -2,2l-8,0l0,21.4l7.4,-7.4l2.6,0c5.4,0 10.3,-3.1 12.6,-8l19.4,0c1.1,0 2,0.9 2,2l0,8l21.4,0zm-19.4,-38c2.2,0 4,-1.8 4,-4l0,-11c0,-0.6 0.4,-1 1,-1s1,0.4 1,1s0.4,1 1,1s1,-0.4 1,-1s0.4,-1 1,-1s1,0.4 1,1s0.4,1 1,1s1,-0.4 1,-1s0.4,-1 1,-1s1,0.4 1,1l0,13c0,6.6 -5.4,12 -12,12l-2,0l0,-10zm0,-33.8c1.2,0.4 2,1.5 2,2.8s-0.8,2.4 -2,2.8l0,-5.6zm-38,2.8c0,-1.3 0.8,-2.4 2,-2.8l0,5.7c-1.2,-0.5 -2,-1.6 -2,-2.9zm34,57l-20.7,0l-0.3,0.6c-1.9,4.5 -6.2,7.4 -11.1,7.4l-3.4,0l-4.6,4.6l0,-14.6l6,0c2.2,0 4,-1.8 4,-4l0,-10l-4,0c-6.6,0 -12,-5.4 -12,-12l0,-13c0,-0.6 0.4,-1 1,-1s1,0.4 1,1s0.4,1 1,1s1,-0.4 1,-1s0.4,-1 1,-1s1,0.4 1,1s0.4,1 1,1s1,-0.4 1,-1s0.4,-1 1,-1s1,0.4 1,1l0,11c0,2.2 1.8,4 4,4l2,0l0,-42c0,-6.4 3.6,-10 10,-10l12,0c6.4,0 10,3.6 10,10l0,16l-24,0c-3.3,0 -6,2.7 -6,6s2.7,6 6,6l24,0l0,30l0.9,0.1c6.2,0.5 11.1,5.7 11.1,12l0,3.4l4.6,4.6l-14.5,0l0,-6c0,-2.3 -1.8,-4.1 -4,-4.1z"/>
 </g>
</svg>